<?xml version="1.0" encoding="utf-8"?>
<!-- Generator: Adobe Illustrator 16.0.0, SVG Export Plug-In . SVG Version: 6.00 Build 0)  -->
<!DOCTYPE svg PUBLIC "-//W3C//DTD SVG 1.1//EN" "http://www.w3.org/Graphics/SVG/1.1/DTD/svg11.dtd">
<svg version="1.1" id="Layer_1" xmlns="http://www.w3.org/2000/svg" xmlns:xlink="http://www.w3.org/1999/xlink" x="0px" y="0px"
	 width="453.94px" height="623.92px" viewBox="0 0 453.94 623.92" enable-background="new 0 0 453.94 623.92" xml:space="preserve">
<g>
	<g>
		<path fill-rule="evenodd" clip-rule="evenodd" d="M1.03,624.92C1.02,417.01,1.02,209.1,1.01,1.14
			C152.22,1.09,303.44,1.09,454.8,1.09c0,207.88,0,415.86,0.04,623.83C303.6,624.92,152.32,624.92,1.03,624.92z M15.43,609.76
			c141.83,0,283.05,0,424.25,0c0-198.31,0-396.28,0-594.24c-141.63,0-282.84,0-424.25,0C15.43,213.74,15.43,411.6,15.43,609.76z"/>
		<path fill-rule="evenodd" clip-rule="evenodd" fill="#FFFFFF" d="M15.43,609.76c0-198.16,0-396.02,0-594.24
			c141.42,0,282.62,0,424.25,0c0,197.95,0,395.93,0,594.24C298.47,609.76,157.26,609.76,15.43,609.76z M170.85,57.94
			c-38,0-75.53,0-113.08,0c0,170.16,0,339.86,0,509.69c37.84,0,75.4,0,112.99,0c0-19,0-37.71,0-56.8c-18.81,0-37.25,0-55.79,0
			c0-56.71,0-113.02,0-169.82c18.89,0,37.3,0,55.74,0c0-19.18,0-37.87,0-57.02c-18.85,0-37.27,0-55.82,0c0-56.65,0-112.84,0-169.52
			c18.82,0,37.25,0,55.96,0C170.85,95.38,170.85,76.8,170.85,57.94z M312.76,497.52c9.68,24.14,18.93,47.22,28.09,70.06
			c19.15,0,37.84,0,57.01,0c-18.28-45.68-36.44-90.87-54.29-136.17c-1.22-3.11-1.16-7.55,0.07-10.67
			c17.89-45.41,36.08-90.69,54.37-136.43c-19.43,0-38.04,0-56.99,0c-9.28,23.13-18.56,46.26-28.26,70.45
			c-9.79-24.43-19.05-47.52-28.15-70.24c-19.29,0-37.82,0-57,0c19.02,47.58,37.83,94.61,56.63,141.64
			c-18.87,47.21-37.67,94.22-56.63,141.64c19.42,0,38.04,0,57,0C293.83,544.75,303.07,521.7,312.76,497.52z"/>
		<path fill-rule="evenodd" clip-rule="evenodd" d="M170.85,57.94c0,18.86,0,37.44,0,56.53c-18.71,0-37.14,0-55.96,0
			c0,56.69,0,112.87,0,169.52c18.55,0,36.97,0,55.82,0c0,19.15,0,37.84,0,57.02c-18.44,0-36.85,0-55.74,0c0,56.8,0,113.12,0,169.82
			c18.54,0,36.97,0,55.79,0c0,19.09,0,37.79,0,56.8c-37.58,0-75.14,0-112.99,0c0-169.83,0-339.53,0-509.69
			C95.32,57.94,132.85,57.94,170.85,57.94z"/>
		<path fill-rule="evenodd" clip-rule="evenodd" d="M312.76,497.52c-9.69,24.19-18.93,47.23-28.15,70.26c-18.96,0-37.59,0-57,0
			c18.96-47.42,37.76-94.43,56.63-141.64c-18.8-47.03-37.61-94.06-56.63-141.64c19.17,0,37.71,0,57,0
			c9.11,22.72,18.36,45.81,28.15,70.24c9.7-24.19,18.98-47.31,28.26-70.45c18.95,0,37.56,0,56.99,0
			c-18.29,45.74-36.48,91.03-54.37,136.43c-1.23,3.13-1.29,7.57-0.07,10.67c17.85,45.31,36.01,90.49,54.29,136.17
			c-19.17,0-37.87,0-57.01,0C331.69,544.73,322.44,521.66,312.76,497.52z"/>
	</g>
</g>
</svg>
